<?xml version="1.0" encoding="UTF-8"?> <!-- Generator: Adobe Illustrator 21.1.0, SVG Export Plug-In . SVG Version: 6.00 Build 0) --> <svg xmlns="http://www.w3.org/2000/svg" xmlns:xlink="http://www.w3.org/1999/xlink" id="Layer_1" x="0px" y="0px" viewBox="0 0 99.3 99.3" style="enable-background:new 0 0 99.3 99.3;" xml:space="preserve"> <style type="text/css"> .st0{fill:#0051FF;} </style> <g> <path class="st0" d="M44.2,39.7c8.7,0,15.8-7.1,15.8-15.8C60,15.1,52.9,8,44.2,8c-8.7,0-15.8,7.1-15.8,15.8 C28.4,32.6,35.5,39.7,44.2,39.7z M44.2,10.8c7.2,0,13,5.8,13,13c0,7.2-5.8,13-13,13c-7.2,0-13-5.8-13-13 C31.2,16.7,37,10.8,44.2,10.8z"></path> <path class="st0" d="M87,68.5h-4.2V46.9c0-0.4-0.1-0.7-0.4-1l-3.4-3.6c1.1-2.2,0.6-4.9-1.3-6.5l-3.8-3.3c-1.1-0.9-2.5-1.4-3.9-1.3 c-1.4,0.1-2.7,0.8-3.7,1.9c-1.9,2.3-1.6,5.7,0.6,7.6l3.8,3.3c1,0.9,2.3,1.3,3.5,1.3c1,0,2.1-0.3,2.9-0.9l2.9,3.1v21.1h-8 c-0.4-14.7-12.5-26.6-27.3-26.6c-14.8,0-26.9,11.9-27.3,26.6h-3.5c-0.8,0-1.4,0.6-1.4,1.4v15.4c0,0.8,0.6,1.4,1.4,1.4H87 c0.8,0,1.4-0.6,1.4-1.4V69.9C88.4,69.1,87.7,68.5,87,68.5z M72.4,41.8l-3.8-3.3c-1.1-0.9-1.2-2.6-0.3-3.6c0.4-0.5,1.1-0.8,1.8-0.9 c0.1,0,0.1,0,0.2,0c0.6,0,1.2,0.2,1.7,0.6l3.8,3.3l0,0c1.1,0.9,1.2,2.6,0.3,3.6C75.2,42.6,73.5,42.8,72.4,41.8z M44.7,44.7 c13.3,0,24.1,10.6,24.5,23.8H20.2C20.6,55.3,31.4,44.7,44.7,44.7z M85.6,83.9H15.3V71.3h70.3V83.9z"></path> </g> </svg> 