<?xml version="1.0" encoding="UTF-8"?> <!-- Generator: Adobe Illustrator 21.1.0, SVG Export Plug-In . SVG Version: 6.00 Build 0) --> <svg xmlns="http://www.w3.org/2000/svg" xmlns:xlink="http://www.w3.org/1999/xlink" id="Layer_1" x="0px" y="0px" viewBox="0 0 100.4 100.4" style="enable-background:new 0 0 100.4 100.4;" xml:space="preserve"> <style type="text/css"> .st0{fill:#0051FF;} </style> <path class="st0" d="M89.8,12.8H36.5v22h-24v43h13.4l13.8,14.6l0-14.6h28.6v-22h21.5V12.8L89.8,12.8z M65.2,74.8H36.7l0,10l-9.5-10 H15.5v-37h21v18H48v13.5l13.8-13.5h3.5V74.8L65.2,74.8z M86.8,52.8H60.5L51,62.2v-9.4H39.5v-37h47.3L86.8,52.8L86.8,52.8z"></path> <path class="st0" d="M50.3,29.3C50.3,29.3,50.3,29.3,50.3,29.3c2.2,0,4-1.8,4-4c0-1.1-0.4-2.1-1.2-2.8c-0.8-0.8-1.8-1.2-2.8-1.2 c-1.1,0-2.1,0.4-2.8,1.2c-0.8,0.8-1.2,1.8-1.2,2.8C46.3,27.6,48.1,29.3,50.3,29.3z M49.4,24.4c0.2-0.2,0.5-0.4,0.9-0.4c0,0,0,0,0,0 c0.3,0,0.6,0.1,0.9,0.4c0.2,0.2,0.4,0.5,0.4,0.9c0,0.7-0.6,1.3-1.2,1.3c0,0,0,0,0,0c-0.7,0-1.2-0.6-1.3-1.2 C49,25,49.1,24.7,49.4,24.4z"></path> <path class="st0" d="M65.2,29.3C65.2,29.3,65.2,29.3,65.2,29.3c1.1,0,2.1-0.4,2.9-1.2c0.8-0.8,1.2-1.8,1.2-2.8 c0-1.1-0.4-2.1-1.2-2.8c-0.8-0.8-1.8-1.2-2.8-1.2c-1.1,0-2.1,0.4-2.8,1.2c-0.8,0.8-1.2,1.8-1.2,2.8C61.1,27.6,62.9,29.3,65.2,29.3z M64.3,24.4c0.2-0.2,0.6-0.4,0.9-0.4c0,0,0,0,0,0c0.3,0,0.6,0.1,0.9,0.4c0.2,0.2,0.4,0.5,0.4,0.9v0c0,0.3-0.1,0.6-0.4,0.9 c-0.2,0.2-0.5,0.4-0.9,0.4c0,0,0,0,0,0c-0.7,0-1.2-0.6-1.3-1.2C63.9,25,64,24.7,64.3,24.4z"></path> <circle class="st0" cx="50.5" cy="25.1" r="1.9"></circle> <circle class="st0" cx="65.6" cy="25.3" r="2"></circle> </svg> 