<?xml version="1.0" encoding="UTF-8"?> <!-- Generator: Adobe Illustrator 21.1.0, SVG Export Plug-In . SVG Version: 6.00 Build 0) --> <svg xmlns="http://www.w3.org/2000/svg" xmlns:xlink="http://www.w3.org/1999/xlink" id="Layer_1" x="0px" y="0px" viewBox="0 0 100.4 100.4" style="enable-background:new 0 0 100.4 100.4;" xml:space="preserve"> <style type="text/css"> .st0{fill:#0051FF;} </style> <g> <path class="st0" d="M67.9,64.1c0.1-0.5,0.2-1,0.4-1.5c5.4-0.3,9.8-4.8,9.8-10.3v-4.8c0-5.2-3.8-9.4-8.8-10.2v-4.9 c0-0.8-0.7-1.5-1.5-1.5H30.2c-0.8,0-1.5,0.7-1.5,1.5V53c0,3.9,0.5,7.7,1.4,11.1c-9.1,2.7-14.6,7.2-14.6,12.3 c0,8.3,14.7,14.8,33.5,14.8c18.8,0,33.5-6.5,33.5-14.8C82.5,71.3,77.1,66.8,67.9,64.1z M75.1,47.5v4.8c0,3.7-2.7,6.7-6.2,7.2 c0.3-2.1,0.5-4.3,0.5-6.5V40.4C72.6,41.1,75.1,44,75.1,47.5z M31.7,33.9h34.5V53c0,4-0.6,7.9-1.6,11.5c0,0.1-0.1,0.2-0.1,0.3 c0,0.1,0,0.1,0,0.2c-1.2,4-3,7.5-5.3,10H38.8c-2.3-2.5-4.1-6-5.3-10c0,0,0-0.1,0-0.1c0-0.1,0-0.1-0.1-0.2c-1-3.5-1.6-7.5-1.6-11.6 L31.7,33.9L31.7,33.9z M49,88.1c-18.2,0-30.5-6.1-30.5-11.8c0-3.6,4.7-7.1,12.4-9.4c1.4,4.2,3.5,7.8,6.1,10.4 c0.3,0.3,0.7,0.4,1.1,0.4h21.8c0.4,0,0.8-0.2,1.1-0.4c2.6-2.6,4.7-6.2,6.1-10.4c7.7,2.3,12.4,5.8,12.4,9.4 C79.5,82,67.2,88.1,49,88.1z"></path> <path class="st0" d="M36.3,18.2c1.3,0.7,2,1.5,2,3.4c0,2.3-1.5,3.1-2,3.3c-0.8,0.3-1.1,1.2-0.8,2c0.2,0.6,0.8,0.9,1.4,0.9 c0.2,0,0.4,0,0.6-0.1c1.8-0.8,3.8-2.8,3.8-6.1c0-3.7-2.1-5.2-3.7-6c0,0-0.1,0-0.1-0.1c-0.5-0.2-2-1-2-3.3c0-2.3,1.5-3.1,2-3.3 c0.8-0.3,1.1-1.2,0.8-2s-1.2-1.1-2-0.8c-1.8,0.8-3.8,2.8-3.8,6.1C32.6,15.4,34.5,17.4,36.3,18.2z"></path> <path class="st0" d="M47.7,18.2c1.3,0.7,2,1.5,2,3.4c0,2.3-1.5,3.1-2,3.3c-0.8,0.3-1.1,1.2-0.8,2c0.2,0.6,0.8,0.9,1.4,0.9 c0.2,0,0.4,0,0.6-0.1c1.8-0.8,3.8-2.8,3.8-6.1c0-3.7-2.1-5.2-3.7-6c0,0-0.1,0-0.1-0.1c-0.5-0.2-2-1-2-3.3c0-2.3,1.5-3.1,2-3.3 c0.8-0.3,1.1-1.2,0.8-2c-0.3-0.8-1.2-1.1-2-0.8C45.9,6.8,44,8.8,44,12.1C44,15.4,45.9,17.4,47.7,18.2z"></path> <path class="st0" d="M59.1,18.2c1.3,0.7,2,1.5,2,3.4c0,2.3-1.5,3.1-2,3.3c-0.8,0.3-1.1,1.2-0.8,2c0.2,0.6,0.8,0.9,1.4,0.9 c0.2,0,0.4,0,0.6-0.1c1.8-0.8,3.8-2.8,3.8-6.1c0-3.7-2.1-5.2-3.7-6c0,0-0.1,0-0.1-0.1c-0.5-0.2-2-1-2-3.3c0-2.3,1.5-3.1,2-3.3 c0.8-0.3,1.1-1.2,0.8-2c-0.3-0.8-1.2-1.1-2-0.8c-1.8,0.8-3.8,2.8-3.8,6.1C55.3,15.3,57.2,17.4,59.1,18.2z"></path> </g> </svg> 